<?xml version="1.0" encoding="utf-8"?>
<!-- Generator: Adobe Illustrator 25.0.1, SVG Export Plug-In . SVG Version: 6.00 Build 0)  -->
<svg version="1.1" id="Camada_1" xmlns="http://www.w3.org/2000/svg" xmlns:xlink="http://www.w3.org/1999/xlink" x="0px" y="0px"
	 viewBox="0 0 341 326" style="enable-background:new 0 0 341 326;" xml:space="preserve">
<circle style="fill:#9578DD;" cx="170.5" cy="160.577" r="156.426"/>
<g id="layer104">
	<path style="fill:#FFFFFF;" d="M141.991,267.241c-10.49-1.249-12.405-2.414-12.571-7.743l-0.083-3.164l4.579-0.25
		c5.994-0.25,8.492-0.833,7.909-1.832c-0.333-0.5-4.745-0.833-10.24-0.749c-11.989,0.083-13.82-0.5-15.985-5.578
		c-1.582-3.58-1.582-3.996-0.333-6.66c0.749-1.582,2.747-3.996,4.329-5.328l2.997-2.498l2.248,2.747l2.248,2.664l-2.997,1.082
		c-1.582,0.583-3.08,1.082-3.164,1.249c-0.083,0.083,16.235,0,36.382-0.083c20.064-0.167,36.549-0.083,36.549,0.167
		c0,0.333-0.583,1.915-1.249,3.58c-1.499,3.663-1.582,3.996-0.083,2.831c2.248-1.915,6.327-12.238,6.993-17.983l0.666-5.828
		l1.332,2.498c2.831,5.078,1.415-0.167-1.832-6.66c-5.745-11.572-13.321-17.317-26.641-20.147c-5.745-1.249-10.99-1.499-27.89-1.499
		c-18.482,0-21.729,0.25-29.139,1.915c-7.659,1.665-17.9,4.995-15.735,5.162c0.833,0,2.831,3.413,2.831,4.745
		c0,0.583-9.824-0.25-11.822-0.999c-0.749-0.333-1.832-1.582-2.331-2.747c-0.5-1.249-2.331-4.329-4.163-6.827
		c-3.58-4.912-4.246-9.075-2.081-11.989c1.082-1.499,1.249-1.415,3.746,0.333c6.327,4.496,17.15,5.412,25.143,2.165
		c3.247-1.332,4.579-1.582,4.246-0.833c-0.25,0.666-0.666,1.166-0.999,1.166c-0.25,0.083-1.998,1.332-3.83,2.997
		c-1.915,1.582-2.581,2.581-1.665,2.248c5.328-1.832,12.238-8.242,15.319-14.236c0.916-1.748,2.248-6.327,3.08-10.157
		c1.249-6.327,1.249-7.243,0-12.405c-2.414-9.907-9.158-17.15-18.899-20.147c-6.161-1.915-9.075-1.998-14.902-0.25
		c-4.662,1.415-7.493,2.914-10.657,5.661l-1.832,1.665l-2.581-2.498c-1.415-1.332-3.663-3.83-5.078-5.578l-2.498-3.08l4.163-8.242
		c4.745-9.324,8.575-15.485,14.486-23.561c3.247-4.412,4.662-5.661,6.244-5.661c1.832,0,1.998-0.167,1.082-1.249
		c-0.916-1.166,0.083-2.498,7.16-9.574c4.579-4.579,8.742-8.325,9.241-8.325c0.5,0,1.332,1.166,1.915,2.498
		c1.166,2.831,1.499,2.914,3.58,1.332c1.332-0.999,1.332-1.332,0.167-4.079c-0.999-2.414-0.999-3.08-0.083-3.83
		c0.916-0.749,1.499-0.333,2.914,1.998c1.499,2.664,1.915,2.831,3.413,1.915c2.081-1.332,2.081-1.582-0.083-4.329
		c-0.999-1.249-1.665-2.414-1.499-2.498c0.167-0.167,2.248-1.249,4.496-2.414c10.324-5.162,23.644-8.908,38.297-10.657
		c9.408-1.166,32.136-1.415,38.13-0.416l3.996,0.583l-0.583,4.079c-0.416,3.497-0.333,4.246,0.916,4.662
		c1.915,0.749,2.914-0.999,2.914-4.995v-3.247l3.58,0.583c4.246,0.666,13.737,3.746,14.32,4.579
		c0.167,0.416-1.082,2.747-2.831,5.328l-3.247,4.579l1.832,1.748l1.915,1.748l2.581-3.996c1.415-2.248,2.831-4.662,3.164-5.412
		c0.666-1.748,1.915-1.748,3.996-0.167c1.499,1.166,1.499,1.249-0.666,4.079c-2.581,3.413-2.664,3.996-0.583,5.245
		c1.499,0.916,1.832,0.666,3.497-2.248c1.082-1.832,2.248-3.33,2.664-3.33c2.248,0,18.899,18.399,18.899,20.98
		c0,0.583-1.332,1.998-2.914,3.08c-2.414,1.582-2.747,2.165-1.998,3.497c1.082,1.998,0.999,1.998,4.412-0.916l2.914-2.581
		l2.165,3.83c2.498,4.246,7.909,17.567,7.41,18.149c-0.25,0.167-1.832,0-3.58-0.5c-4.079-1.082-6.078-0.333-5.745,2.081
		c0.25,1.748,0.749,1.915,5.411,2.165l5.162,0.25l0.833,3.08c1.915,6.91,2.498,13.654,2.165,23.894
		c-0.25,8.742-0.666,11.905-2.248,16.568c-1.166,3.247-2.414,5.911-2.914,6.078c-0.5,0.167-3.08-2.081-5.745-5.078
		c-4.496-4.829-5.078-5.245-6.494-4.246c-1.415,1.082-1.332,1.415,2.498,5.828c2.165,2.581,4.995,5.245,6.327,5.911
		c1.249,0.666,2.331,1.415,2.331,1.665s-1.249,2.331-2.831,4.745c-4.246,6.577-12.821,16.568-23.811,27.64
		c-9.408,9.574-10.074,10.49-15.735,21.48c-6.078,12.072-9.324,16.984-12.655,19.565c-1.082,0.916-9.99,5.661-19.731,10.657
		l-17.733,9.075l-13.903,0.167C157.226,268.24,146.903,267.824,141.991,267.241z M198.27,252.922
		c2.165-1.582,6.411-8.409,6.411-10.324c0-0.583-1.332,0.666-2.914,2.747c-3.497,4.579-8.325,6.411-17.4,6.494
		c-3.247,0-6.66,0.333-7.576,0.749c-1.998,0.833-1.998,0.916,3.746,1.415c2.498,0.25,4.745,0.583,4.995,0.833
		C186.532,255.835,196.272,254.337,198.27,252.922z M225.161,220.702c1.249-2.498,4.662-6.744,7.992-9.99
		c6.327-6.078,6.078-5.412,4.412-13.487c-0.5-2.165,0-3.164,3.08-6.66c3.83-4.329,3.164-4.329-2.331,0.083
		c-4.163,3.33-4.995,5.994-3.247,9.574c1.499,2.831,1.748,2.414-4.662,9.741c-3.497,3.996-8.409,12.322-8.742,14.902
		C221.332,227.03,223.08,224.948,225.161,220.702z M188.779,196.142c-4.662-2.997-10.906-9.741-13.154-14.153
		c-2.331-4.579-2.248-4.662,1.415-0.999c4.079,4.163,11.156,8.492,16.817,10.49c6.161,2.081,17.067,2.165,23.561,0
		c19.065-6.078,31.054-26.725,26.059-45.04c-3.746-13.987-15.402-25.559-28.889-28.639c-16.401-3.83-34.883,4.163-43.209,18.649
		c-4.079,7.16-5.328,12.988-4.745,22.479c0.749,12.655,4.163,22.312,10.573,29.971c3.83,4.496,5.578,5.994,9.99,8.076
		C191.86,199.139,192.859,198.64,188.779,196.142z M135.58,182.655c1.998-1.082,4.995-5.994,4.995-8.242
		c0-3.913-4.412-2.664-7.576,2.165C129.836,181.323,131.417,184.903,135.58,182.655z M157.06,178.659
		c0.416-5.994-5.162-14.902-8.159-13.071c-2.331,1.499-0.083,11.323,3.58,15.235C155.145,183.654,156.727,182.905,157.06,178.659z
		 M144.738,115.386c3.996-1.998,5.745-3.247,16.151-12.155c7.826-6.66,14.32-10.99,19.648-13.071c4.995-1.998,2.248-1.998-3.413,0
		c-7.493,2.581-11.073,4.745-20.897,12.738c-15.069,12.155-18.899,13.237-32.719,9.408c-7.659-2.165-18.149-2.831-19.148-1.249
		c-0.333,0.5,1.332,0.833,4.329,0.833c3.33,0.083,7.493,0.999,13.154,2.997C131.75,118.3,138.411,118.466,144.738,115.386z
		 M141.824,107.81c2.747-1.249,17.067-12.904,17.067-13.903c0-0.666-3.08,0.916-6.66,3.247c-2.081,1.415-5.828,3.913-8.325,5.661
		c-2.498,1.665-6.993,3.83-9.99,4.745l-5.412,1.665l4.995,0.083C136.746,109.308,139.66,108.809,141.824,107.81z"/>
	<path style="fill:#FFFFFF;" d="M196.356,187.65c-15.235-3.83-25.809-17.317-25.809-32.802c0-9.574,3.663-17.65,10.99-24.227
		c14.07-12.655,33.551-12.072,46.622,1.332c2.081,2.248,4.912,6.161,6.244,8.825c2.165,4.412,2.331,5.578,2.331,13.987
		c0,8.658-0.167,9.491-2.747,14.736c-3.497,7.077-10.74,13.987-17.4,16.484C211.258,188.067,201.101,188.899,196.356,187.65z
		 M211.674,157.179c1.832-1.748,1.665-4.163-0.333-6.161s-4.412-2.165-6.161-0.333c-1.582,1.499-1.748,5.412-0.333,6.827
		C206.263,158.928,210.176,158.761,211.674,157.179z"/>
	<path style="fill:#FFFFFF;" d="M125.756,234.939c-3.33-4.246-3.413-4.412-1.582-4.995c0.999-0.25,4.329-0.5,7.493-0.583
		l5.578-0.083v4.496c0,3.913-0.25,4.496-1.832,4.995C130.751,240.017,129.253,239.351,125.756,234.939z"/>
	<path style="fill:#FFFFFF;" d="M179.705,237.769c-2.997-1.415-6.244-6.327-6.827-10.074c-0.25-1.915,0.083-2.081,5.578-3.08
		c3.247-0.583,6.827-1.249,8.159-1.499c2.248-0.416,2.248-0.416,2.248,4.079c0,5.162-0.749,7.576-3.247,10.24
		C183.451,239.684,183.368,239.684,179.705,237.769z"/>
	<path style="fill:#FFFFFF;" d="M117.68,219.537c1.166-6.577,4.662-16.734,5.911-17.234c0.749-0.25,4.412-0.5,8.159-0.5h6.91
		l1.332,9.324c0.666,5.162,1.166,9.491,0.999,9.657c-0.416,0.416-15.319,1.748-19.898,1.832h-3.996L117.68,219.537z"/>
	<path style="fill:#FFFFFF;" d="M152.397,214.375c-0.583-1.748-0.999-3.746-0.999-4.329c0.083-0.916,4.912-4.662,8.409-6.411
		c0.416-0.167,2.331,3.33,4.579,8.742l1.166,2.664l-3.164,0.833c-1.665,0.416-4.412,0.999-6.078,1.249
		C153.396,217.622,153.313,217.539,152.397,214.375z"/>
	<path style="fill:#FFFFFF;" d="M177.041,213.792l-2.997-2.165l1.249-2.997c0.666-1.748,1.499-3.33,1.832-3.663
		c0.583-0.666,9.241,3.08,9.241,3.996c0,0.749-5.078,6.993-5.661,6.993C180.371,215.957,178.706,214.958,177.041,213.792z"/>
	<path style="fill:#FFFFFF;" d="M92.288,185.902c-4.579-1.998-9.491-6.66-11.905-11.156c-1.415-2.581-1.832-4.745-1.832-9.99
		c0-5.828,0.333-7.243,2.414-10.99c2.581-4.662,7.077-8.742,11.822-10.74c4.329-1.832,13.654-1.665,17.983,0.333
		c15.319,6.91,18.316,27.807,5.578,38.713C109.855,187.65,99.864,189.232,92.288,185.902z M98.948,163.923
		c0.583-0.749,0.833-2.081,0.5-3.413c-0.416-1.665-0.999-2.081-2.831-1.832c-1.582,0.167-2.331,0.749-2.498,2.165
		C93.62,164.423,96.867,166.504,98.948,163.923z"/>
</g>
<g id="layer106">
	<path style="fill:#FFFFFF;" d="M188.03,236.77c0.749-1.166,1.748-2.997,2.081-4.079c0.5-1.665,0.999-1.832,3.164-1.415
		c3.247,0.666,3.164,0.5,2.248,3.996c-0.833,2.831-1.082,2.997-4.912,3.33l-4.079,0.25L188.03,236.77z"/>
	<path style="fill:#FFFFFF;" d="M152.148,234.772c3.913-5.578,10.74-11.323,17.15-14.236c6.91-3.164,9.408-3.83,10.074-2.831
		c0.25,0.5,1.332,0.333,2.498-0.416c1.915-1.332,7.493-1.748,10.906-0.833c1.915,0.5,3.58,5.412,3.58,10.407
		c0,2.414-0.167,2.581-2.248,1.998c-2.747-0.666-2.331-0.167-3.33-4.163c-0.749-3.247-0.833-3.33-4.079-3.164
		c-4.829,0.333-13.903,1.915-15.235,2.664c-0.916,0.583-0.916,1.415,0.167,4.912l1.166,4.246l-2.581,2.498
		c-2.664,2.581-2.747,2.581-11.572,2.581h-8.991L152.148,234.772z"/>
	<path style="fill:#FFFFFF;" d="M170.547,237.769c0-0.333,0.833-1.082,1.748-1.748c1.582-0.916,1.998-0.833,3.58,0.666l1.665,1.748
		h-3.497C172.129,238.435,170.547,238.186,170.547,237.769z"/>
	<path style="fill:#FFFFFF;" d="M110.687,213.709c-2.997-1.499-7.992-7.659-6.993-8.658c0.749-0.583,16.068-2.664,16.568-2.165
		c0.167,0.167-0.583,2.914-1.582,6.078C116.432,215.374,115.349,216.04,110.687,213.709z"/>
	<path style="fill:#FFFFFF;" d="M141.075,207.881c-1.082-6.91-1.082-6.91,4.745-6.827c2.831,0,6.827,0.333,8.908,0.583l3.746,0.583
		l-3.746,2.581c-4.579,3.164-10.324,6.161-11.905,6.161C142.074,210.962,141.408,209.713,141.075,207.881z"/>
</g>
</svg>
